# xmcd
#
# Track frame offsets: 
#        150
#        22582
#        41669
#        64260
#        83396
#        103113
#        123175
#        137694
#        154610
#        170622
#
# Disc length: 2509 seconds
#
# Revision: 0
# Processed by: cddbd v1.5.2PL0 Copyright (c) Steve Scherf et al.
# Submitted via: ExactAudioCopy v0.99pb5
#
DISCID=7109cb0a
DTITLE=Rachel Anne Wolfe - Cool
DYEAR=2007
DGENRE=R&B
TTITLE0=Sweet Smiles
TTITLE1=Complicated
TTITLE2=In My Heart
TTITLE3=Cool
TTITLE4=Kahit Di Ako
TTITLE5=Nothing Lasts Forever
TTITLE6=There's Love
TTITLE7=Gotta Get Over You
TTITLE8=Be Yourself
TTITLE9=Part of Everything
EXTD=
EXTT0=
EXTT1=
EXTT2=
EXTT3=
EXTT4=
EXTT5=
EXTT6=
EXTT7=
EXTT8=
EXTT9=
PLAYORDER=
